<mxfile host="app.diagrams.net" modified="2024-05-13T09:40:54.717Z" agent="Mozilla/5.0 (Windows NT 10.0; Win64; x64) AppleWebKit/537.36 (KHTML, like Gecko) Chrome/118.0.0.0 Safari/537.36" etag="bZDK1J_INjS6V1eu9YbV" version="24.4.0" type="device">
  <diagram name="Page-1" id="0783ab3e-0a74-02c8-0abd-f7b4e66b4bec">
    <mxGraphModel dx="1687" dy="892" grid="1" gridSize="10" guides="1" tooltips="1" connect="1" arrows="1" fold="1" page="1" pageScale="1" pageWidth="850" pageHeight="1100" background="none" math="0" shadow="0">
      <root>
        <mxCell id="0" />
        <mxCell id="1" parent="0" />
        <mxCell id="1c1d494c118603dd-1" value="Akira3d" style="swimlane;html=1;childLayout=stackLayout;startSize=20;rounded=0;shadow=0;comic=0;labelBackgroundColor=none;strokeWidth=1;fontFamily=Verdana;fontSize=12;align=center;" parent="1" vertex="1">
          <mxGeometry x="200" y="20" width="500" height="880" as="geometry" />
        </mxCell>
        <mxCell id="1c1d494c118603dd-2" value="Пользователь" style="swimlane;html=1;startSize=20;" parent="1c1d494c118603dd-1" vertex="1">
          <mxGeometry y="20" width="250" height="860" as="geometry" />
        </mxCell>
        <mxCell id="60571a20871a0731-4" value="" style="ellipse;whiteSpace=wrap;html=1;rounded=0;shadow=0;comic=0;labelBackgroundColor=none;strokeWidth=1;fillColor=#000000;fontFamily=Verdana;fontSize=12;align=center;" parent="1c1d494c118603dd-2" vertex="1">
          <mxGeometry x="110" y="40" width="40" height="40" as="geometry" />
        </mxCell>
        <mxCell id="60571a20871a0731-5" value="" style="shape=mxgraph.bpmn.shape;html=1;verticalLabelPosition=bottom;labelBackgroundColor=#ffffff;verticalAlign=top;perimeter=ellipsePerimeter;outline=end;symbol=terminate;rounded=0;shadow=0;comic=0;strokeWidth=1;fontFamily=Verdana;fontSize=12;align=center;" parent="1c1d494c118603dd-2" vertex="1">
          <mxGeometry x="105" y="810" width="40" height="40" as="geometry" />
        </mxCell>
        <mxCell id="n237uLjp9kBz44W4xRVu-1" value="Импортирование объекта" style="rounded=1;whiteSpace=wrap;html=1;" vertex="1" parent="1c1d494c118603dd-2">
          <mxGeometry x="52.5" y="120" width="155" height="30" as="geometry" />
        </mxCell>
        <mxCell id="n237uLjp9kBz44W4xRVu-2" value="" style="endArrow=classic;html=1;rounded=0;exitX=0.5;exitY=1;exitDx=0;exitDy=0;" edge="1" parent="1c1d494c118603dd-2" source="60571a20871a0731-4" target="n237uLjp9kBz44W4xRVu-1">
          <mxGeometry width="50" height="50" relative="1" as="geometry">
            <mxPoint x="90" y="280" as="sourcePoint" />
            <mxPoint x="140" y="230" as="targetPoint" />
          </mxGeometry>
        </mxCell>
        <mxCell id="n237uLjp9kBz44W4xRVu-17" value="Взаимодействие с объектом" style="rounded=1;whiteSpace=wrap;html=1;" vertex="1" parent="1c1d494c118603dd-2">
          <mxGeometry x="50" y="410" width="150" height="30" as="geometry" />
        </mxCell>
        <mxCell id="n237uLjp9kBz44W4xRVu-30" value="Получение итогового изображения" style="rounded=1;whiteSpace=wrap;html=1;" vertex="1" parent="1c1d494c118603dd-2">
          <mxGeometry x="42.5" y="720" width="165" height="30" as="geometry" />
        </mxCell>
        <mxCell id="n237uLjp9kBz44W4xRVu-32" value="" style="endArrow=classic;html=1;rounded=0;exitX=0.5;exitY=1;exitDx=0;exitDy=0;entryX=0.5;entryY=0;entryDx=0;entryDy=0;" edge="1" parent="1c1d494c118603dd-2" source="n237uLjp9kBz44W4xRVu-30" target="60571a20871a0731-5">
          <mxGeometry width="50" height="50" relative="1" as="geometry">
            <mxPoint x="190" y="830" as="sourcePoint" />
            <mxPoint x="240" y="780" as="targetPoint" />
          </mxGeometry>
        </mxCell>
        <mxCell id="n237uLjp9kBz44W4xRVu-4" value="" style="endArrow=classic;html=1;rounded=0;exitX=1;exitY=0.5;exitDx=0;exitDy=0;entryX=0.5;entryY=0;entryDx=0;entryDy=0;" edge="1" parent="1c1d494c118603dd-1" source="n237uLjp9kBz44W4xRVu-1" target="n237uLjp9kBz44W4xRVu-3">
          <mxGeometry width="50" height="50" relative="1" as="geometry">
            <mxPoint x="170" y="310" as="sourcePoint" />
            <mxPoint x="220" y="260" as="targetPoint" />
            <Array as="points">
              <mxPoint x="375" y="155" />
            </Array>
          </mxGeometry>
        </mxCell>
        <mxCell id="1c1d494c118603dd-3" value="Приложение" style="swimlane;html=1;startSize=20;" parent="1c1d494c118603dd-1" vertex="1">
          <mxGeometry x="250" y="20" width="250" height="860" as="geometry" />
        </mxCell>
        <mxCell id="n237uLjp9kBz44W4xRVu-3" value="" style="rhombus;whiteSpace=wrap;html=1;" vertex="1" parent="1c1d494c118603dd-3">
          <mxGeometry x="105" y="160" width="40" height="40" as="geometry" />
        </mxCell>
        <mxCell id="n237uLjp9kBz44W4xRVu-5" value="Обработка объекта" style="rounded=1;whiteSpace=wrap;html=1;" vertex="1" parent="1c1d494c118603dd-3">
          <mxGeometry x="15" y="240" width="80" height="30" as="geometry" />
        </mxCell>
        <mxCell id="n237uLjp9kBz44W4xRVu-9" value="Очистка&lt;br&gt;буфера" style="rounded=1;whiteSpace=wrap;html=1;" vertex="1" parent="1c1d494c118603dd-3">
          <mxGeometry x="155" y="240" width="80" height="30" as="geometry" />
        </mxCell>
        <mxCell id="n237uLjp9kBz44W4xRVu-10" value="" style="endArrow=classic;html=1;rounded=0;exitX=0;exitY=0.5;exitDx=0;exitDy=0;entryX=0.5;entryY=0;entryDx=0;entryDy=0;" edge="1" parent="1c1d494c118603dd-3" source="n237uLjp9kBz44W4xRVu-3" target="n237uLjp9kBz44W4xRVu-5">
          <mxGeometry width="50" height="50" relative="1" as="geometry">
            <mxPoint x="15" y="220" as="sourcePoint" />
            <mxPoint x="65" y="170" as="targetPoint" />
            <Array as="points">
              <mxPoint x="55" y="180" />
            </Array>
          </mxGeometry>
        </mxCell>
        <mxCell id="n237uLjp9kBz44W4xRVu-14" value="[Сцена пустая]" style="edgeLabel;html=1;align=center;verticalAlign=middle;resizable=0;points=[];" vertex="1" connectable="0" parent="n237uLjp9kBz44W4xRVu-10">
          <mxGeometry x="0.2805" relative="1" as="geometry">
            <mxPoint as="offset" />
          </mxGeometry>
        </mxCell>
        <mxCell id="n237uLjp9kBz44W4xRVu-11" value="" style="endArrow=classic;html=1;rounded=0;exitX=1;exitY=0.5;exitDx=0;exitDy=0;entryX=0.5;entryY=0;entryDx=0;entryDy=0;" edge="1" parent="1c1d494c118603dd-3" source="n237uLjp9kBz44W4xRVu-3" target="n237uLjp9kBz44W4xRVu-9">
          <mxGeometry width="50" height="50" relative="1" as="geometry">
            <mxPoint x="15" y="220" as="sourcePoint" />
            <mxPoint x="65" y="170" as="targetPoint" />
            <Array as="points">
              <mxPoint x="195" y="180" />
            </Array>
          </mxGeometry>
        </mxCell>
        <mxCell id="n237uLjp9kBz44W4xRVu-13" value="[Старый объект&lt;br&gt;&amp;nbsp;на сцене]" style="edgeLabel;html=1;align=center;verticalAlign=middle;resizable=0;points=[];" vertex="1" connectable="0" parent="n237uLjp9kBz44W4xRVu-11">
          <mxGeometry x="0.2719" relative="1" as="geometry">
            <mxPoint as="offset" />
          </mxGeometry>
        </mxCell>
        <mxCell id="n237uLjp9kBz44W4xRVu-12" value="" style="endArrow=classic;html=1;rounded=0;exitX=0;exitY=0.5;exitDx=0;exitDy=0;entryX=1;entryY=0.5;entryDx=0;entryDy=0;" edge="1" parent="1c1d494c118603dd-3" source="n237uLjp9kBz44W4xRVu-9" target="n237uLjp9kBz44W4xRVu-5">
          <mxGeometry width="50" height="50" relative="1" as="geometry">
            <mxPoint x="15" y="220" as="sourcePoint" />
            <mxPoint x="65" y="170" as="targetPoint" />
          </mxGeometry>
        </mxCell>
        <mxCell id="n237uLjp9kBz44W4xRVu-15" value="Отображение объекта" style="rounded=1;whiteSpace=wrap;html=1;" vertex="1" parent="1c1d494c118603dd-3">
          <mxGeometry x="50" y="360" width="150" height="30" as="geometry" />
        </mxCell>
        <mxCell id="n237uLjp9kBz44W4xRVu-16" value="" style="endArrow=classic;html=1;rounded=0;exitX=0.5;exitY=1;exitDx=0;exitDy=0;entryX=0.5;entryY=0;entryDx=0;entryDy=0;" edge="1" parent="1c1d494c118603dd-3" source="n237uLjp9kBz44W4xRVu-5" target="n237uLjp9kBz44W4xRVu-15">
          <mxGeometry width="50" height="50" relative="1" as="geometry">
            <mxPoint x="-60" y="400" as="sourcePoint" />
            <mxPoint x="-10" y="350" as="targetPoint" />
            <Array as="points">
              <mxPoint x="55" y="320" />
              <mxPoint x="125" y="320" />
            </Array>
          </mxGeometry>
        </mxCell>
        <mxCell id="n237uLjp9kBz44W4xRVu-19" value="" style="rhombus;whiteSpace=wrap;html=1;" vertex="1" parent="1c1d494c118603dd-3">
          <mxGeometry x="105" y="460" width="40" height="40" as="geometry" />
        </mxCell>
        <mxCell id="n237uLjp9kBz44W4xRVu-21" value="" style="endArrow=classic;html=1;rounded=0;exitX=1;exitY=0.5;exitDx=0;exitDy=0;entryX=0.5;entryY=0;entryDx=0;entryDy=0;" edge="1" parent="1c1d494c118603dd-3">
          <mxGeometry width="50" height="50" relative="1" as="geometry">
            <mxPoint x="145" y="480" as="sourcePoint" />
            <mxPoint x="195" y="540" as="targetPoint" />
            <Array as="points">
              <mxPoint x="195" y="480" />
            </Array>
          </mxGeometry>
        </mxCell>
        <mxCell id="n237uLjp9kBz44W4xRVu-22" value="[Масштабирование]" style="edgeLabel;html=1;align=center;verticalAlign=middle;resizable=0;points=[];" vertex="1" connectable="0" parent="n237uLjp9kBz44W4xRVu-21">
          <mxGeometry x="0.2719" relative="1" as="geometry">
            <mxPoint as="offset" />
          </mxGeometry>
        </mxCell>
        <mxCell id="n237uLjp9kBz44W4xRVu-23" value="" style="endArrow=classic;html=1;rounded=0;exitX=0;exitY=0.5;exitDx=0;exitDy=0;entryX=0.5;entryY=0;entryDx=0;entryDy=0;" edge="1" parent="1c1d494c118603dd-3">
          <mxGeometry width="50" height="50" relative="1" as="geometry">
            <mxPoint x="105" y="480" as="sourcePoint" />
            <mxPoint x="55" y="540" as="targetPoint" />
            <Array as="points">
              <mxPoint x="55" y="480" />
            </Array>
          </mxGeometry>
        </mxCell>
        <mxCell id="n237uLjp9kBz44W4xRVu-24" value="[Смена материала]" style="edgeLabel;html=1;align=center;verticalAlign=middle;resizable=0;points=[];" vertex="1" connectable="0" parent="n237uLjp9kBz44W4xRVu-23">
          <mxGeometry x="0.2805" relative="1" as="geometry">
            <mxPoint as="offset" />
          </mxGeometry>
        </mxCell>
        <mxCell id="n237uLjp9kBz44W4xRVu-25" value="Обновление&lt;br&gt;координат" style="rounded=1;whiteSpace=wrap;html=1;" vertex="1" parent="1c1d494c118603dd-3">
          <mxGeometry x="155" y="540" width="80" height="30" as="geometry" />
        </mxCell>
        <mxCell id="n237uLjp9kBz44W4xRVu-26" value="Обновление&lt;br&gt;буфера" style="rounded=1;whiteSpace=wrap;html=1;" vertex="1" parent="1c1d494c118603dd-3">
          <mxGeometry x="15" y="540" width="80" height="30" as="geometry" />
        </mxCell>
        <mxCell id="n237uLjp9kBz44W4xRVu-27" value="" style="endArrow=classic;html=1;rounded=0;exitX=0;exitY=0.5;exitDx=0;exitDy=0;entryX=1;entryY=0.5;entryDx=0;entryDy=0;" edge="1" parent="1c1d494c118603dd-3" source="n237uLjp9kBz44W4xRVu-25" target="n237uLjp9kBz44W4xRVu-26">
          <mxGeometry width="50" height="50" relative="1" as="geometry">
            <mxPoint x="120" y="530" as="sourcePoint" />
            <mxPoint x="170" y="480" as="targetPoint" />
          </mxGeometry>
        </mxCell>
        <mxCell id="n237uLjp9kBz44W4xRVu-28" value="Отображение обновленного объекта" style="rounded=1;whiteSpace=wrap;html=1;" vertex="1" parent="1c1d494c118603dd-3">
          <mxGeometry x="42.5" y="650" width="165" height="30" as="geometry" />
        </mxCell>
        <mxCell id="n237uLjp9kBz44W4xRVu-29" value="" style="endArrow=classic;html=1;rounded=0;exitX=0.5;exitY=1;exitDx=0;exitDy=0;entryX=0.5;entryY=0;entryDx=0;entryDy=0;" edge="1" parent="1c1d494c118603dd-3" source="n237uLjp9kBz44W4xRVu-26" target="n237uLjp9kBz44W4xRVu-28">
          <mxGeometry width="50" height="50" relative="1" as="geometry">
            <mxPoint x="80" y="570" as="sourcePoint" />
            <mxPoint x="130" y="520" as="targetPoint" />
            <Array as="points">
              <mxPoint x="55" y="610" />
              <mxPoint x="125" y="610" />
            </Array>
          </mxGeometry>
        </mxCell>
        <mxCell id="n237uLjp9kBz44W4xRVu-18" value="" style="endArrow=classic;html=1;rounded=0;exitX=0;exitY=0.5;exitDx=0;exitDy=0;entryX=0.5;entryY=0;entryDx=0;entryDy=0;" edge="1" parent="1c1d494c118603dd-1" source="n237uLjp9kBz44W4xRVu-15" target="n237uLjp9kBz44W4xRVu-17">
          <mxGeometry width="50" height="50" relative="1" as="geometry">
            <mxPoint x="190" y="490" as="sourcePoint" />
            <mxPoint x="240" y="440" as="targetPoint" />
            <Array as="points">
              <mxPoint x="125" y="395" />
            </Array>
          </mxGeometry>
        </mxCell>
        <mxCell id="n237uLjp9kBz44W4xRVu-20" value="" style="endArrow=classic;html=1;rounded=0;exitX=1;exitY=0.5;exitDx=0;exitDy=0;entryX=0.5;entryY=0;entryDx=0;entryDy=0;" edge="1" parent="1c1d494c118603dd-1" source="n237uLjp9kBz44W4xRVu-17" target="n237uLjp9kBz44W4xRVu-19">
          <mxGeometry width="50" height="50" relative="1" as="geometry">
            <mxPoint x="225" y="450" as="sourcePoint" />
            <mxPoint x="380" y="475" as="targetPoint" />
            <Array as="points">
              <mxPoint x="375" y="445" />
            </Array>
          </mxGeometry>
        </mxCell>
        <mxCell id="n237uLjp9kBz44W4xRVu-31" value="" style="endArrow=classic;html=1;rounded=0;exitX=0.5;exitY=1;exitDx=0;exitDy=0;entryX=1;entryY=0.5;entryDx=0;entryDy=0;" edge="1" parent="1c1d494c118603dd-1" source="n237uLjp9kBz44W4xRVu-28" target="n237uLjp9kBz44W4xRVu-30">
          <mxGeometry width="50" height="50" relative="1" as="geometry">
            <mxPoint x="200" y="790" as="sourcePoint" />
            <mxPoint x="250" y="740" as="targetPoint" />
            <Array as="points">
              <mxPoint x="375" y="755" />
            </Array>
          </mxGeometry>
        </mxCell>
      </root>
    </mxGraphModel>
  </diagram>
</mxfile>
